<svg width="32" height="32" viewBox="0 0 32 32" fill="none" xmlns="http://www.w3.org/2000/svg">
<rect width="32" height="32" rx="5" fill="black"/>
<path d="M3.69363 22.1906C3.50177 22.1906 3.33759 22.1222 3.20169 21.9843C3.06703 21.8469 3 21.6823 3 21.4896V19.752C3 19.55 3.06703 19.3828 3.20169 19.2498C3.33759 19.1175 3.50177 19.051 3.69363 19.051H9.84529C10.047 19.051 10.2124 18.9857 10.3421 18.8546C10.4731 18.7222 10.5389 18.5588 10.5389 18.3649C10.5389 18.1729 10.4731 18.0082 10.3421 17.8702C10.2124 17.7329 10.047 17.6639 9.84529 17.6639H6.30089C5.66752 17.6639 5.1018 17.5197 4.60371 17.2313C4.10686 16.9417 3.71454 16.5452 3.42798 16.0431C3.14266 15.5397 3 14.968 3 14.3279V13.336C3 12.6866 3.14266 12.113 3.42798 11.6158C3.71454 11.1174 4.10686 10.7234 4.60371 10.435C5.1018 10.1454 5.66752 10 6.30089 10H13.7513C13.9511 10 14.1165 10.0665 14.2481 10.1989C14.3791 10.33 14.4449 10.4972 14.4449 10.701V12.4237C14.4449 12.6164 14.3791 12.781 14.2481 12.9184C14.1165 13.0564 13.9511 13.1247 13.7513 13.1247H7.58484C7.39299 13.1247 7.23126 13.1912 7.10029 13.3236C6.97054 13.4547 6.90597 13.6219 6.90597 13.8257C6.90597 14.0184 6.97054 14.1806 7.10029 14.313C7.23126 14.4441 7.39299 14.5093 7.58484 14.5093H11.1415C11.786 14.5093 12.3542 14.6548 12.8461 14.9444C13.338 15.2346 13.7273 15.6292 14.0144 16.1276C14.301 16.6248 14.4449 17.1984 14.4449 17.8478V18.8372C14.4449 19.4785 14.301 20.054 14.0144 20.5624C13.7273 21.0695 13.338 21.4685 12.8461 21.7581C12.3542 22.0464 11.786 22.1906 11.1415 22.1906H3.69363Z" fill="white"/>
<path d="M14.8354 22.1906C14.6435 22.1906 14.4793 22.1222 14.3434 21.9843C14.2088 21.8469 14.1417 21.6823 14.1417 21.4896V10.701C14.1417 10.4972 14.2088 10.33 14.3434 10.1989C14.4793 10.0665 14.6435 10 14.8354 10H19.9908C20.1925 10 20.358 10.0665 20.4877 10.1989C20.6187 10.33 20.6845 10.4972 20.6845 10.701V11.8892C20.6845 12.0831 20.7497 12.2466 20.8813 12.379C21.0122 12.5101 21.1727 12.5753 21.3633 12.5753C21.565 12.5753 21.7305 12.5101 21.8602 12.379C21.9912 12.2466 22.057 12.0831 22.057 11.8892V10.701C22.057 10.4972 22.1246 10.33 22.2611 10.1989C22.397 10.0665 22.56 10 22.7506 10H27.9086C28.1084 10 28.2738 10.0665 28.4054 10.1989C28.5364 10.33 28.6022 10.4972 28.6022 10.701V21.4896C28.6022 21.6823 28.5364 21.8469 28.4054 21.9843C28.2738 22.1222 28.1084 22.1906 27.9086 22.1906H25.3898C25.198 22.1906 25.0338 22.1222 24.8979 21.9843C24.7632 21.8469 24.6962 21.6823 24.6962 21.4896V14.3875C24.6962 14.1955 24.6304 14.0339 24.4994 13.9028C24.3697 13.7704 24.2043 13.7039 24.0026 13.7039C23.812 13.7039 23.6515 13.7704 23.5205 13.9028C23.3889 14.0339 23.3237 14.1955 23.3237 14.3875V21.4896C23.3237 21.6823 23.2579 21.8469 23.1269 21.9843C22.9972 22.1222 22.8318 22.1906 22.6301 22.1906H20.1114C19.9207 22.1906 19.7578 22.1222 19.6219 21.9843C19.4854 21.8469 19.4177 21.6823 19.4177 21.4896V14.3875C19.4177 14.1955 19.3519 14.0339 19.221 13.9028C19.0912 13.7704 18.9264 13.7039 18.7266 13.7039C18.5347 13.7039 18.373 13.7704 18.242 13.9028C18.1123 14.0339 18.0477 14.1955 18.0477 14.3875V21.4896C18.0477 21.6823 17.9819 21.8469 17.8509 21.9843C17.7193 22.1222 17.5539 22.1906 17.3541 22.1906H14.8354Z" fill="white"/>
<path d="M10.631 14.6772C10.631 14.7636 10.631 14.8487 10.631 14.9332C10.631 15.0178 10.6445 15.1035 10.6728 15.1893C10.6857 15.2458 10.6987 15.2987 10.7122 15.3484C10.7269 15.3981 10.7478 15.459 10.7761 15.5298C10.8745 15.4024 10.9311 15.3173 10.9458 15.2738C10.9735 15.2458 10.9877 15.2253 10.9877 15.2116C10.9877 15.1967 10.995 15.1756 11.0098 15.147L11.1131 14.9332C11.1426 14.8624 11.1709 14.7841 11.1992 14.6996C11.2269 14.615 11.241 14.5231 11.241 14.4236C11.241 14.2683 11.1918 14.1614 11.0934 14.103C11.0787 14.0899 11.043 14.0831 10.9877 14.0831C10.9169 14.0831 10.8536 14.1117 10.7983 14.1676C10.6864 14.2521 10.631 14.4224 10.631 14.6772ZM9.93492 16.7628L10.1883 16.4024L10.3777 16.124C10.2645 15.899 10.1723 15.669 10.1022 15.4354C10.0333 15.2005 9.99887 14.9475 9.99887 14.6772C9.99887 14.5647 10.0087 14.4584 10.0284 14.359C10.0493 14.2596 10.0751 14.1601 10.1046 14.0607L10.1661 13.8917L10.2719 13.7624C10.342 13.663 10.4195 13.5996 10.5031 13.571C10.6568 13.4865 10.8259 13.4442 11.0098 13.4442C11.0375 13.4442 11.0651 13.4479 11.0934 13.4542C11.1211 13.461 11.1562 13.4716 11.1992 13.4865L11.3468 13.5287C11.4857 13.6002 11.5835 13.6717 11.6395 13.7425C11.669 13.7562 11.6936 13.7841 11.7133 13.827C11.7342 13.8705 11.7588 13.9202 11.7871 13.9762C11.8295 14.0756 11.851 14.1893 11.851 14.3167C11.851 14.3453 11.8467 14.3776 11.8387 14.4137C11.8319 14.4485 11.8289 14.4802 11.8289 14.5082L11.7871 14.7418C11.7735 14.8413 11.7317 14.9475 11.6616 15.06C11.6469 15.1035 11.6321 15.1389 11.6173 15.1669C11.6038 15.1955 11.5909 15.2241 11.578 15.2539L11.3665 15.592L11.2607 15.7635C11.2324 15.8201 11.1974 15.8729 11.1549 15.9226C11.1137 15.9723 11.0719 16.0258 11.0295 16.0817L11.1574 16.2955L11.2828 16.5093C11.3105 16.5658 11.3382 16.6149 11.3665 16.6559L11.514 16.8921C11.5417 16.9337 11.5663 16.976 11.5878 17.0189C11.6087 17.0624 11.6333 17.1046 11.6616 17.1456L11.7452 17.2749L11.8731 17.5086L11.9986 17.7L12.124 17.9983L12.188 18.1474C12.2993 18.4029 12.3626 18.6645 12.3774 18.933V19.1467C12.3774 19.2033 12.3731 19.2636 12.3651 19.3282C12.3583 19.3916 12.3485 19.4587 12.3356 19.5296C12.3208 19.6576 12.279 19.7782 12.2101 19.8925L12.0822 20.1038C12.2938 20.0193 12.4764 19.9198 12.6307 19.8055C12.7008 19.7645 12.7599 19.7185 12.8078 19.6688C12.857 19.6191 12.9099 19.5731 12.9677 19.5296C13.1067 19.4022 13.229 19.271 13.3342 19.1368C13.4406 19.0013 13.5285 18.8832 13.5974 18.7838L13.745 18.5725C13.8151 18.4582 13.8815 18.3525 13.9442 18.2543C14.0081 18.1549 14.0678 18.048 14.1238 17.9337C14.2221 17.7497 14.3138 17.6577 14.3992 17.6577C14.4546 17.6577 14.4902 17.6646 14.505 17.6776C14.6163 17.7211 14.6723 17.7845 14.6723 17.869C14.6723 17.9125 14.6581 17.9759 14.6304 18.0604L14.4411 18.4234L14.2517 18.7416L13.9147 19.2313C13.8311 19.3593 13.74 19.4799 13.6417 19.5942C13.5433 19.7073 13.4375 19.813 13.3244 19.9124C13.2684 19.9689 13.2118 20.0187 13.1546 20.0615C13.0987 20.105 13.0427 20.1473 12.9874 20.1883C12.889 20.2878 12.7488 20.3735 12.5668 20.4444C12.4961 20.4879 12.4192 20.5233 12.3356 20.5513C12.2519 20.5798 12.1671 20.6078 12.0822 20.6358L11.6198 20.765L11.2607 20.8272C11.1771 20.8421 11.0861 20.8527 10.9877 20.8595C10.8893 20.8657 10.7909 20.8694 10.6925 20.8694H10.6089C10.4398 20.8694 10.2362 20.8346 9.99887 20.765L9.74552 20.6358C9.70248 20.6227 9.66067 20.5948 9.62008 20.5513C9.49341 20.4239 9.41593 20.3387 9.38641 20.2952C9.37288 20.2822 9.36673 20.2542 9.36673 20.2107C9.36673 20.1398 9.38026 20.0901 9.40855 20.0615L9.49218 19.9969C9.54937 19.941 9.60594 19.9124 9.6619 19.9124H9.68157L9.87097 20.1038C9.9134 20.1324 9.95214 20.1535 9.98657 20.1684C10.0222 20.1821 10.0468 20.1958 10.0604 20.2107C10.1864 20.2672 10.3691 20.2952 10.6089 20.2952C10.6642 20.2952 10.7202 20.2921 10.7761 20.2853C10.8333 20.2791 10.8967 20.2679 10.9655 20.253C11.0356 20.225 11.1063 20.197 11.1771 20.1684C11.2472 20.1405 11.3037 20.0982 11.3468 20.0417C11.3744 19.9988 11.4089 19.9559 11.4501 19.9124C11.4925 19.8695 11.5276 19.813 11.5558 19.7434C11.5706 19.7154 11.5841 19.6837 11.5977 19.6489C11.6124 19.6128 11.6259 19.5731 11.6395 19.5296C11.6542 19.4587 11.6647 19.3947 11.6715 19.3382C11.6794 19.2822 11.6838 19.2257 11.6838 19.1691C11.6838 18.9988 11.6764 18.8919 11.6616 18.8484C11.6469 18.721 11.605 18.5794 11.5362 18.4234C11.5067 18.3525 11.4882 18.2854 11.4821 18.222C11.4753 18.1574 11.4581 18.0896 11.4304 18.0182L11.241 17.7199L11.1574 17.5508L11.0516 17.3594L10.904 17.1034L10.7983 16.9343L10.7146 16.8051L10.631 16.6559L10.5671 16.7429C10.5111 16.7995 10.4299 16.902 10.3235 17.0512C10.2184 17.2003 10.12 17.3495 10.0284 17.4986C9.93799 17.6465 9.87896 17.7416 9.85129 17.7845L9.51431 18.3388C9.45836 18.4103 9.41224 18.4955 9.37657 18.5949C9.34214 18.6931 9.3034 18.7776 9.26097 18.8484L9.07157 19.3382C9.0439 19.4096 9.0193 19.4736 8.99778 19.5296C8.97687 19.5861 8.95228 19.6433 8.92399 19.7011C8.89632 19.7993 8.87172 19.8875 8.8502 19.9671C8.82929 20.0454 8.8047 20.1405 8.77641 20.253C8.73583 20.381 8.6977 20.4767 8.66327 20.5413C8.6276 20.6047 8.5741 20.6358 8.50339 20.6358H8.46157C8.39147 20.6358 8.32813 20.6153 8.27218 20.5736C8.21683 20.5307 8.18855 20.4953 8.18855 20.4667C8.17379 20.4518 8.16641 20.4089 8.16641 20.3375V20.253L8.25004 19.8701C8.29308 19.7148 8.34228 19.5762 8.39762 19.455C8.45358 19.3344 8.51691 19.1753 8.58702 18.9777C8.67249 18.7788 8.73644 18.6372 8.77887 18.5526C8.82007 18.4669 8.86865 18.3879 8.92399 18.3165L9.09371 17.9983L9.2831 17.7C9.38149 17.5446 9.47557 17.3992 9.56597 17.265C9.65759 17.1295 9.78057 16.9617 9.93492 16.7628Z" fill="#BEF264"/>
<path d="M20.5678 19.5942C20.681 19.4668 20.7652 19.2971 20.8212 19.0846C20.8765 18.8708 20.9122 18.6645 20.9269 18.4656C20.9269 18.3382 20.9269 18.2108 20.9269 18.0828C20.9269 17.9554 20.9196 17.8342 20.9048 17.7199C20.7929 17.9622 20.681 18.2183 20.5678 18.488C20.4559 18.7565 20.3717 19.0324 20.3145 19.3158C20.3009 19.3593 20.2948 19.4165 20.2948 19.4873C20.2948 19.5159 20.2979 19.5513 20.3046 19.5942C20.3108 19.6358 20.3354 19.6564 20.3784 19.6564C20.4485 19.6713 20.5119 19.6508 20.5678 19.5942ZM16.5684 15.4652C16.3569 15.4652 16.1675 15.551 16.0002 15.7212C15.9295 15.7927 15.8625 15.8748 15.7985 15.9673C15.7358 16.0587 15.6694 16.1606 15.5993 16.2731C15.5286 16.3725 15.4615 16.4906 15.3976 16.6261C15.3349 16.7603 15.2684 16.8772 15.1983 16.9766C15.0864 17.1475 14.9954 17.3072 14.9253 17.4564C14.8546 17.6043 14.7839 17.7565 14.7138 17.9138C14.6019 18.1263 14.4758 18.204 14.335 18.1474C14.2231 18.1046 14.1677 18.0405 14.1677 17.956C14.1677 17.8982 14.1739 17.8485 14.1874 17.8069C14.1874 17.792 14.1936 17.7708 14.2071 17.7422C14.2219 17.7143 14.2366 17.6863 14.2514 17.6577L14.3153 17.5508C14.4266 17.352 14.5176 17.168 14.5883 16.999C14.6584 16.8287 14.7568 16.6435 14.8835 16.4446C14.9819 16.2607 15.0557 16.1264 15.1049 16.0419C15.1541 15.9562 15.2063 15.8772 15.2623 15.8058L15.4296 15.5721C15.6817 15.2458 15.9 15.0401 16.0838 14.9556C16.1115 14.9407 16.1459 14.9227 16.1871 14.9009C16.2296 14.8798 16.2646 14.8686 16.2929 14.8686C16.3778 14.8406 16.4516 14.8263 16.5143 14.8263C16.5782 14.8263 16.6379 14.8263 16.6938 14.8263C16.933 14.8263 17.1501 14.9258 17.3456 15.1246C17.444 15.211 17.5037 15.3074 17.5252 15.413C17.5461 15.5193 17.5646 15.6218 17.5793 15.7212V16.1041C17.6906 15.9487 17.8093 15.807 17.936 15.679L18.0417 15.5721C18.2238 15.3732 18.4058 15.1992 18.5878 15.0501C18.771 14.9009 18.9819 14.7841 19.2199 14.6996C19.4167 14.6287 19.6196 14.5896 19.8299 14.5827C20.0415 14.5765 20.2241 14.6014 20.3784 14.6573C20.6865 14.7704 20.9005 14.9227 21.0204 15.1147C21.1397 15.3055 21.235 15.564 21.3057 15.8903L21.3254 15.9127C21.3531 15.8977 21.3844 15.8698 21.4189 15.8281C21.4545 15.7853 21.4865 15.7498 21.5148 15.7212L21.5566 15.679C21.8087 15.4372 22.0719 15.2384 22.3462 15.0824C22.6198 14.927 22.9119 14.7915 23.2218 14.6772C23.4739 14.5927 23.699 14.5504 23.8958 14.5504C24.1331 14.5504 24.3434 14.6001 24.5254 14.6996C24.7776 14.8556 24.935 15.0439 24.9977 15.2639C25.0617 15.4826 25.0936 15.7206 25.0936 15.9773C25.0936 16.1333 25.0795 16.2893 25.0518 16.4446C25.0235 16.6006 24.9959 16.7846 24.9682 16.9965C24.9399 17.1823 24.9049 17.3246 24.8624 17.4241C24.8212 17.5235 24.7862 17.672 24.7567 17.869L24.6952 18.1474L24.5254 18.8708L24.4836 19.1244C24.4553 19.3232 24.4621 19.5115 24.5033 19.6887C24.5457 19.8664 24.7007 19.9547 24.9682 19.9547H25.0936C25.2068 19.9416 25.3015 19.9211 25.379 19.8925C25.4558 19.8627 25.5511 19.8198 25.6643 19.7632C25.7332 19.7222 25.8026 19.6657 25.8734 19.5942C25.9435 19.5234 26.056 19.4096 26.2103 19.2536L26.6727 18.657C26.7859 18.4868 26.8701 18.3556 26.9261 18.2643C26.9814 18.1717 27.0448 18.0548 27.1155 17.9138C27.2286 17.7 27.3547 17.6217 27.4943 17.6776C27.6074 17.7211 27.664 17.7845 27.664 17.869C27.664 17.9274 27.6566 17.9772 27.6419 18.0182L27.5804 18.1673L27.5164 18.2742C27.4033 18.4731 27.3184 18.6191 27.2631 18.7117C27.2071 18.8031 27.1161 18.9268 26.99 19.0821C26.8486 19.281 26.7429 19.4345 26.6727 19.542C26.6039 19.6483 26.5338 19.7359 26.4637 19.8055L26.2521 20.0193C26.0978 20.1902 25.9681 20.3039 25.8635 20.3598C25.7584 20.4164 25.6569 20.4661 25.5585 20.509C25.4454 20.5655 25.3181 20.6078 25.1773 20.6358C25.0377 20.6644 24.9399 20.678 24.8846 20.678C24.8415 20.678 24.796 20.678 24.7468 20.678C24.6976 20.678 24.6521 20.6644 24.6115 20.6358C24.4984 20.6078 24.3852 20.5624 24.2721 20.4991C24.1602 20.4344 24.0833 20.3598 24.0409 20.2753C23.9013 20.0205 23.838 19.7931 23.8515 19.5942V19.5519C23.8663 19.3531 23.8841 19.148 23.9056 18.9355C23.9265 18.7217 23.972 18.5153 24.0409 18.3165L24.1048 18.0828C24.1325 17.9703 24.1639 17.8578 24.1983 17.7447C24.234 17.6304 24.2598 17.516 24.2746 17.4017L24.3582 16.9965C24.3859 16.884 24.4031 16.7603 24.4098 16.6261C24.4178 16.4906 24.4221 16.3663 24.4221 16.2532C24.4221 16.1824 24.4221 16.101 24.4221 16.0096C24.4221 15.917 24.4074 15.8275 24.3779 15.7411C24.3219 15.6007 24.266 15.4944 24.2106 15.4229C24.1676 15.367 24.0901 15.3248 23.9769 15.2962C23.865 15.2682 23.7605 15.2607 23.6621 15.2738C23.4241 15.3024 23.2347 15.3453 23.0939 15.4031C22.9543 15.4596 22.7508 15.5796 22.4839 15.7635C22.2736 15.9064 22.0565 16.0979 21.8321 16.3377C21.7891 16.3812 21.7392 16.431 21.6821 16.4869C21.6261 16.5434 21.5775 16.6149 21.5369 16.7007C21.481 16.7703 21.4533 16.8691 21.4533 16.9965V17.0412C21.4533 17.1258 21.4564 17.2892 21.4631 17.5309C21.4693 17.7715 21.4761 18.0157 21.4828 18.2643C21.4908 18.5129 21.481 18.7012 21.4533 18.8286C21.4238 19.0262 21.3807 19.2313 21.3254 19.4451C21.2418 19.8565 21.0979 20.1299 20.895 20.2654C20.6914 20.3996 20.5334 20.4667 20.4202 20.4667H20.2948C20.098 20.4667 19.9504 20.3741 19.8521 20.1883C19.7537 20.033 19.7008 19.8813 19.6946 19.7334C19.6879 19.5843 19.6909 19.4451 19.7045 19.3158C19.7321 19.0324 19.7986 18.7565 19.9037 18.488C20.0101 18.2183 20.1263 17.9411 20.253 17.6577C20.3514 17.4589 20.4424 17.2848 20.526 17.1357C20.6096 16.9865 20.7006 16.8268 20.799 16.6559C20.8415 16.5714 20.863 16.4937 20.863 16.4223C20.863 16.3527 20.8488 16.2402 20.8212 16.0842C20.7929 15.927 20.7363 15.7778 20.6515 15.6367L20.5039 15.4453C20.4903 15.4024 20.4485 15.3596 20.3784 15.3161C20.3354 15.2881 20.2757 15.2564 20.1989 15.2216C20.1214 15.1855 20.0341 15.1669 19.9357 15.1669C19.5434 15.1669 19.1369 15.3875 18.7157 15.8281C18.6597 15.8698 18.6136 15.912 18.5779 15.9549C18.5435 15.9984 18.5121 16.0338 18.4845 16.0618C18.455 16.0904 18.4291 16.1227 18.4082 16.1588C18.3885 16.1936 18.3646 16.2253 18.3369 16.2532L18.0614 16.636C17.9071 16.8349 17.749 17.1258 17.5867 17.5086C17.4256 17.8914 17.2965 18.268 17.1981 18.6372C17.1292 18.8777 17.0948 19.0336 17.0948 19.1045L17.0529 19.3804V19.4649C17.0382 19.4799 17.0308 19.537 17.0308 19.6365L16.989 20.0417V20.3176C17.0167 20.5015 16.9533 20.6296 16.7996 20.7004C16.7566 20.7141 16.7283 20.7246 16.7135 20.7327C16.7 20.7396 16.6865 20.7427 16.6717 20.7427C16.6434 20.7427 16.6262 20.7458 16.62 20.7526C16.6133 20.7607 16.5961 20.765 16.5684 20.765H16.5266C16.4134 20.7352 16.3353 20.6855 16.2929 20.6159C16.1945 20.4736 16.1699 20.2679 16.2191 19.9994C16.2683 19.7297 16.3212 19.4736 16.379 19.2313L16.6717 17.9759L16.7356 17.6776C16.7504 17.6217 16.7639 17.5682 16.7775 17.5185C16.7922 17.4688 16.7996 17.4085 16.7996 17.3371L16.8414 17.0412C16.8691 16.9704 16.8863 16.8921 16.8931 16.8076C16.9011 16.7218 16.9115 16.636 16.925 16.5515C16.9398 16.4521 16.9472 16.3464 16.9472 16.2333C16.9472 16.119 16.9472 16.0121 16.9472 15.9127C16.9472 15.7983 16.9152 15.6958 16.8512 15.6044C16.7885 15.5118 16.6944 15.4652 16.5684 15.4652Z" fill="#BEF264"/>
</svg>
