<svg width="32" height="32" viewBox="0 0 32 32" fill="none" xmlns="http://www.w3.org/2000/svg">
<g clip-path="url(#clip0_1_23)">
<rect width="32" height="32" rx="4" fill="#E6E6E6"/>
<mask id="mask0_1_23" style="mask-type:luminance" maskUnits="userSpaceOnUse" x="-5" y="16" width="26" height="26">
<path d="M-5 16.1364H20.7938V41.9294H-5V16.1364Z" fill="white"/>
</mask>
<g mask="url(#mask0_1_23)">
<mask id="mask1_1_23" style="mask-type:luminance" maskUnits="userSpaceOnUse" x="-5" y="16" width="26" height="26">
<path d="M7.8965 16.1364C0.774191 16.1364 -5 21.9097 -5 29.0329C-5 36.1552 0.774191 41.9294 7.8965 41.9294C15.0196 41.9294 20.7938 36.1552 20.7938 29.0329C20.7938 21.9097 15.0196 16.1364 7.8965 16.1364Z" fill="white"/>
</mask>
<g mask="url(#mask1_1_23)">
<path d="M-5 16.1364H20.7938V41.9294H-5V16.1364Z" fill="#BEF264"/>
</g>
</g>
<mask id="mask2_1_23" style="mask-type:luminance" maskUnits="userSpaceOnUse" x="4" y="-10" width="26" height="26">
<path d="M4 -10H29.7938V15.793H4V-10Z" fill="white"/>
</mask>
<g mask="url(#mask2_1_23)">
<mask id="mask3_1_23" style="mask-type:luminance" maskUnits="userSpaceOnUse" x="4" y="-10" width="26" height="26">
<path d="M16.8965 -10C9.77419 -10 4 -4.22664 4 2.89649C4 10.0188 9.77419 15.793 16.8965 15.793C24.0196 15.793 29.7938 10.0188 29.7938 2.89649C29.7938 -4.22664 24.0196 -10 16.8965 -10Z" fill="white"/>
</mask>
<g mask="url(#mask3_1_23)">
<path d="M4 -10H29.7938V15.793H4V-10Z" fill="#BEF264"/>
</g>
</g>
<path d="M28.488 27.2373C28.6002 28.7237 28.3027 30.1069 27.5964 31.3878C26.8916 32.6694 25.8894 33.7928 24.5905 34.7582C23.2908 35.722 21.7592 36.4923 19.9942 37.0683C18.2307 37.6451 16.3836 37.9509 14.4522 37.987C15.1208 37.9132 15.7609 37.7091 16.3738 37.3756C16.986 37.0405 17.5334 36.6226 18.0153 36.1226C18.4988 35.6211 18.8805 35.0458 19.1599 34.3967C19.4385 33.7461 19.5786 33.0677 19.5786 32.3606C19.5786 30.951 19.0861 29.6152 18.1027 28.3517C17.1185 27.0889 15.8746 25.854 14.3708 24.647C12.8664 23.4407 11.2512 22.2246 9.52458 20.9995C7.79721 19.7751 6.18204 18.495 4.67832 17.1592C3.17383 15.8219 1.92989 14.4108 0.946479 12.9244C-0.0376837 11.4387 -0.529388 9.82353 -0.529388 8.07809C-0.529388 6.40795 -0.0745803 4.99684 0.835036 3.84627C1.74465 2.69569 2.89523 1.75897 4.28676 1.03609C5.6798 0.311715 7.2031 -0.208604 8.85592 -0.524108C10.508 -0.841118 12.0953 -1 13.6179 -1H14.4522C13.1525 -0.887051 12.0019 -0.404382 11.0004 0.44876C9.99822 1.30265 9.441 2.50895 9.3288 4.06915C9.21811 5.51716 9.59838 6.85448 10.4703 8.0811C11.3438 9.30622 12.4582 10.4847 13.8136 11.6172C15.169 12.7482 16.672 13.8701 18.3226 14.9845C19.9746 16.099 21.525 17.2789 22.973 18.5236C24.4226 19.7668 25.6665 21.0943 26.7049 22.5054C27.7448 23.9151 28.3389 25.4926 28.488 27.2373ZM25.982 9.52685C25.7591 8.41242 25.3593 7.27992 24.7832 6.12934C24.2087 4.97877 23.4851 3.90274 22.6116 2.90051C21.7396 1.89677 20.7382 1.05115 19.6057 0.364424C18.4732 -0.322306 17.2382 -0.739464 15.9009 -0.888557C17.0892 -0.775608 18.2126 -0.636304 19.2713 -0.469892C20.3293 -0.302728 21.4528 -0.219899 22.6417 -0.219899C23.272 -0.219899 23.8932 -0.274867 24.5061 -0.385557C25.1183 -0.497753 25.61 -0.702567 25.982 -1V9.52685ZM8.10293 35.3124C8.21513 35.9449 8.6978 36.5307 9.55169 37.0683C10.4048 37.6067 11.6119 37.9132 13.1721 37.987C11.2783 37.9132 9.505 37.6158 7.85294 37.0955C6.20012 36.5759 4.75136 35.8892 3.50666 35.0353C2.26346 34.1821 1.2793 33.1889 0.554922 32.0564C-0.167951 30.9239 -0.529388 29.689 -0.529388 28.3517C-0.529388 27.5347 -0.372013 26.7644 -0.0565084 26.0415C0.260502 25.3171 0.688202 24.6854 1.22659 24.147C1.76423 23.6093 2.39524 23.1824 3.11811 22.8669C3.84249 22.5521 4.61356 22.394 5.43131 22.394C6.24831 22.394 7.01862 22.5521 7.74149 22.8669C8.46587 23.1824 9.09764 23.6093 9.63603 24.147C10.1737 24.6854 10.6006 25.3171 10.9161 26.0415C11.2309 26.7644 11.389 27.5347 11.389 28.3517C11.389 29.1694 11.2309 29.9495 10.9161 30.692C10.6006 31.4329 10.1827 32.064 9.66313 32.5835C9.06827 33.216 8.64057 33.7002 8.38003 34.0353C8.121 34.3689 8.02838 34.7943 8.10293 35.3124Z" fill="#272727" fill-opacity="0.8"/>
<mask id="mask4_1_23" style="mask-type:luminance" maskUnits="userSpaceOnUse" x="1" y="24" width="9" height="9">
<path d="M1.16774 24.4113H9.10655V32.3501H1.16774V24.4113Z" fill="white"/>
</mask>
<g mask="url(#mask4_1_23)">
<path d="M9.16001 28.4075C6.16235 28.9594 5.71507 29.4067 5.16388 32.4036C4.61193 29.4067 4.16465 28.9594 1.16774 28.4075C4.16465 27.8555 4.61193 27.4083 5.16388 24.4113C5.71507 27.4083 6.16235 27.8555 9.16001 28.4075Z" fill="#BEF264"/>
</g>
<path d="M20.1287 6.11184C17.131 6.66379 16.6837 7.11107 16.1325 10.108C15.5806 7.11107 15.1333 6.66379 12.1364 6.11184C15.1333 5.5599 15.5806 5.11262 16.1325 2.11571C16.6837 5.11262 17.131 5.5599 20.1287 6.11184Z" fill="#272727" fill-opacity="0.8"/>
</g>
<defs>
<clipPath id="clip0_1_23">
<rect width="32" height="32" rx="4" fill="white"/>
</clipPath>
</defs>
</svg>
